HIERARCHY
ROOT Hips
{
	OFFSET -3.958830 18.904000 13.208200
	CHANNELS 6 Xposition Yposition Zposition Zrotation Yrotation Xrotation 
	JOINT LHipJoint
	{
		OFFSET 0.000000 0.000000 0.000000
		CHANNELS 3 Zrotation Yrotation Xrotation
		JOINT LeftUpLeg
		{
			OFFSET 1.800000 -1.400000 0.085000
			CHANNELS 3 Zrotation Yrotation Xrotation
			JOINT LeftLeg
			{
				OFFSET 2.215000 -6.000000 0.000000
				CHANNELS 3 Zrotation Yrotation Xrotation
				JOINT LeftFoot
				{
					OFFSET 2.500000 -6.900000 0.000000
					CHANNELS 3 Zrotation Yrotation Xrotation
					JOINT LeftToeBase
					{
						OFFSET 0.200000 -0.500000 1.950000
						CHANNELS 3 Zrotation Yrotation Xrotation
						End Site
						{
							OFFSET 0.000000 0.000000 0.000000
						}
					}
				}
			}
		}
	}
	JOINT RHipJoint
	{
		OFFSET 0.000000 0.000000 0.000000
		CHANNELS 3 Zrotation Yrotation Xrotation
		JOINT RightUpLeg
		{
			OFFSET -1.800000 -1.400000 0.085000
			CHANNELS 3 Zrotation Yrotation Xrotation
			JOINT RightLeg
			{
				OFFSET -2.215000 -6.000000 0.000000
				CHANNELS 3 Zrotation Yrotation Xrotation
				JOINT RightFoot
				{
					OFFSET -2.500000 -6.900000 0.000000
					CHANNELS 3 Zrotation Yrotation Xrotation
					JOINT RightToeBase
					{
						OFFSET -0.200000 -0.500000 1.950000
						CHANNELS 3 Zrotation Yrotation Xrotation
						End Site
						{
							OFFSET 0.000000 0.000000 0.000000
						}
					}
				}
			}
		}
	}
	JOINT LowerBack
	{
		OFFSET 0.000000 0.000000 0.000000
		CHANNELS 3 Zrotation Yrotation Xrotation
		JOINT Spine
		{
			OFFSET -0.087000 1.940000 -0.288900
			CHANNELS 3 Zrotation Yrotation Xrotation
			JOINT Spine1
			{
				OFFSET 0.000000 1.950000 0.060000
				CHANNELS 3 Zrotation Yrotation Xrotation
				JOINT Neck
				{
					OFFSET 0.000000 0.000000 0.000000
					CHANNELS 3 Zrotation Yrotation Xrotation
					JOINT Neck1
					{
						OFFSET 0.000000 1.600000 0.340000
						CHANNELS 3 Zrotation Yrotation Xrotation
						JOINT Head
						{
							OFFSET 0.000000 1.667000 -0.240000
							CHANNELS 3 Zrotation Yrotation Xrotation
							End Site
							{
								OFFSET 0.000000 0.000000 0.000000
							}
						}
					}
				}
				JOINT LeftShoulder
				{
					OFFSET 0.000000 0.000000 0.000000
					CHANNELS 3 Zrotation Yrotation Xrotation
					JOINT LeftArm
					{
						OFFSET 2.700000 1.550000 -0.730000
						CHANNELS 3 Zrotation Yrotation Xrotation
						JOINT LeftForeArm
						{
							OFFSET 5.450000 0.000000 0.000000
							CHANNELS 3 Zrotation Yrotation Xrotation
							JOINT LeftHand
							{
								OFFSET 3.450000 0.000000 0.000000
								CHANNELS 3 Zrotation Yrotation Xrotation
								JOINT LeftHandIndex1
								{
									OFFSET 0.750000 0.000000 0.000000
									CHANNELS 3 Zrotation Yrotation Xrotation
									End Site
									{
										OFFSET 0.000000 0.000000 0.000000
									}
								}
							}
						}
					}
				}
				JOINT RightShoulder
				{
					OFFSET 0.000000 0.000000 0.000000
					CHANNELS 3 Zrotation Yrotation Xrotation
					JOINT RightArm
					{
						OFFSET -2.700000 1.550000 -0.730000
						CHANNELS 3 Zrotation Yrotation Xrotation
						JOINT RightForeArm
						{
							OFFSET -5.450000 0.000000 0.000000
							CHANNELS 3 Zrotation Yrotation Xrotation
							JOINT RightHand
							{
								OFFSET -3.450000 0.000000 0.000000
								CHANNELS 3 Zrotation Yrotation Xrotation
								JOINT RightHandIndex1
								{
									OFFSET -0.750000 0.000000 0.000000
									CHANNELS 3 Zrotation Yrotation Xrotation
									End Site
									{
										OFFSET 0.000000 0.000000 0.000000
									}
								}
							}
						}
					}
				}
			}
		}
	}
}
MOTION
Frames: 4
Frame Time: 0.016667
0.280300 17.729940 -0.881540 -5.634225 3.503375 -5.517487 -15.067745 13.214228 2.639557 5.135320 1.015232 5.011347 -5.770180 6.371097 10.813450 -0.213180 5.033885 2.918900 0.476960 0.080780 0.586000 18.522110 -9.528889 4.514880 3.360090 11.627901 -38.607644 -1.296905 -5.620198 48.220652 -0.879102 -6.003000 2.237121 0.039390 -0.078440 0.197560 -4.112246 -2.339672 -8.417517 12.970845 -7.920531 22.357947 -9.374460 -5.781860 1.171550 4.095019 -0.678946 -5.938766 -3.944445 3.540675 48.571232 -4.108520 4.127860 -13.416320 -24.608838 3.783570 -0.331511 -39.834824 11.309207 -10.959212 -44.617134 -29.174947 7.028898 -3.415299 3.054984 0.791690 -0.102350 0.226410 0.070310 16.643643 -5.881792 2.110161 55.551589 -10.037087 -15.746022 56.985759 36.688401 12.665959 2.159059 -1.517623 -0.189880 0.173860 -0.091220 -0.352020 
0.260850 17.699390 -0.814950 -4.819248 2.390317 -4.542519 -15.105803 13.365492 2.768278 4.283186 1.100931 4.644853 -5.943440 6.361005 10.795152 -0.223800 5.027102 2.928982 0.458850 0.062740 0.575120 18.439841 -9.754210 4.187647 3.870801 9.801916 -36.513589 -1.412705 -4.478189 40.058679 -0.565952 -4.571347 2.721241 0.040580 -0.048670 0.205570 -3.934892 -2.418609 -8.251421 11.279262 -7.285179 20.755451 -8.432197 -5.620597 1.744322 3.975815 -0.342019 -5.531021 -3.172006 3.578643 47.212315 -4.662010 4.863650 -12.715140 -23.952383 4.780164 -0.584934 -40.105314 11.119494 -10.743133 -45.398796 -28.448089 6.980411 -3.466393 3.062116 0.764920 -0.064970 0.200740 0.070420 16.432348 -7.030931 1.631158 55.698740 -9.954556 -15.550937 56.627566 36.366833 12.500070 2.145571 -1.530325 -0.201390 0.170620 -0.081800 -0.353160 
0.240750 17.668510 -0.749000 -4.039997 1.361317 -3.524985 -15.151749 13.472789 2.857951 3.492954 1.168933 4.170633 -6.201996 6.391254 10.900656 -0.232461 5.031342 2.937186 0.439580 0.044910 0.560350 18.367230 -9.917483 3.912522 3.981351 8.240230 -34.784669 -0.811407 -3.916754 32.864160 -0.331327 -3.469714 3.114517 0.042970 -0.012140 0.212700 -3.756893 -2.492762 -8.089713 9.682726 -6.717594 19.037233 -7.566568 -5.464275 2.318570 3.865256 -0.038788 -5.078229 -2.455259 3.657969 45.638187 -5.159480 5.551210 -11.915830 -23.322094 5.815841 -0.858804 -40.287463 10.901128 -10.442110 -46.202122 -27.840351 7.022100 -3.521444 3.074036 0.730600 -0.021620 0.168170 0.071710 16.223083 -8.194224 1.173533 55.811477 -9.910479 -15.265574 56.423363 36.118014 12.442114 2.128221 -1.548066 -0.212820 0.169090 -0.070860 -0.352230 
0.221210 17.638740 -0.687250 -3.399185 0.297458 -2.473699 -15.201054 13.526975 2.896306 2.812643 1.196313 3.563490 -6.478346 6.450341 11.184669 -0.243226 5.047987 2.943717 0.419320 0.025390 0.539420 18.311878 -9.998371 3.724346 3.974099 7.139953 -33.498218 0.125186 -3.635345 27.046424 -0.170207 -2.730174 3.391960 0.047780 0.033680 0.223950 -3.595559 -2.556899 -7.940495 8.345104 -6.213979 17.298696 -6.741715 -5.286504 2.823467 3.751696 0.198560 -4.581286 -1.865553 3.754433 43.923087 -5.622990 6.124640 -10.936450 -22.762870 6.890452 -1.163078 -40.451009 10.644162 -10.072349 -46.903033 -27.384586 7.136548 -3.581721 3.090690 0.691220 0.029350 0.130570 0.078070 16.067415 -9.344562 0.725133 55.818371 -9.873098 -14.896042 56.145809 35.930782 12.416147 2.106494 -1.571575 -0.225790 0.168150 -0.059060 -0.347790 
